<svg width="100" height="100" viewBox="0 0 100 100" fill="none" xmlns="http://www.w3.org/2000/svg">
<rect width="100" height="100" rx="12" fill="white"/>
<path d="M63.417 38.0802C64.2438 38.0802 64.9141 37.4099 64.9141 36.583C64.9141 35.7562 64.2438 35.0859 63.417 35.0859C62.5901 35.0859 61.9198 35.7562 61.9198 36.583C61.9198 37.4099 62.5901 38.0802 63.417 38.0802Z" fill="black"/>
<path d="M21.7546 66.2683C20.6315 67.3911 20.0003 68.914 20 70.5022V77.0057C20 77.7999 20.3155 78.5615 20.877 79.123C21.4385 79.6845 22.2001 80 22.9943 80H31.9771C32.7712 80 33.5328 79.6845 34.0944 79.123C34.6559 78.5615 34.9714 77.7999 34.9714 77.0057V74.0115C34.9714 73.2173 35.2868 72.4557 35.8484 71.8942C36.4099 71.3326 37.1715 71.0172 37.9656 71.0172H40.9599C41.754 71.0172 42.5157 70.7017 43.0772 70.1402C43.6387 69.5786 43.9542 68.817 43.9542 68.0229V65.0286C43.9542 64.2345 44.2697 63.4729 44.8312 62.9114C45.3927 62.3498 46.1543 62.0344 46.9485 62.0344H47.4635C49.0516 62.034 50.5746 61.4029 51.6974 60.2797L54.1347 57.8424C58.2963 59.292 62.8266 59.2865 66.9846 57.8267C71.1426 56.3668 74.6821 53.5391 77.024 49.8061C79.366 46.0731 80.3718 41.6558 79.8768 37.2769C79.3819 32.898 77.4155 28.8166 74.2995 25.7005C71.1834 22.5845 67.102 20.6181 62.7231 20.1232C58.3442 19.6282 53.9269 20.634 50.1939 22.976C46.4609 25.3179 43.6332 28.8574 42.1733 33.0154C40.7135 37.1734 40.708 41.7037 42.1576 45.8653L21.7546 66.2683Z" stroke="black" stroke-width="6" stroke-linecap="round" stroke-linejoin="round"/>
<path d="M63.417 38.0802C64.2438 38.0802 64.9141 37.4099 64.9141 36.583C64.9141 35.7562 64.2438 35.0859 63.417 35.0859C62.5901 35.0859 61.9198 35.7562 61.9198 36.583C61.9198 37.4099 62.5901 38.0802 63.417 38.0802Z" stroke="black" stroke-width="6" stroke-linecap="round" stroke-linejoin="round"/>
</svg>
